<?xml version="1.0" encoding="UTF-8"?>
<!-- Created with Inkscape (http://www.inkscape.org/) -->
<svg width="2500" height="1600" version="1.1" viewBox="0 0 661.46 423.33" xml:space="preserve" xmlns="http://www.w3.org/2000/svg"><defs><clipPath id="e"><path d="M 0,763.246 H 1144.868 V 0 H 0 Z"/></clipPath><filter id="d" x="-.016476" y="-.096451" width="1.033" height="1.1929" color-interpolation-filters="sRGB"><feGaussianBlur stdDeviation="3.7023144"/></filter><filter id="c" x="-.023341" y="-.096876" width="1.0466" height="1.1938" color-interpolation-filters="sRGB"><feGaussianBlur stdDeviation="3.7023144"/></filter><filter id="b" x="-.023161" y="-.096875" width="1.0463" height="1.1937" color-interpolation-filters="sRGB"><feGaussianBlur stdDeviation="3.7023144"/></filter><filter id="a" x="-.0228" y="-.033097" width="1.0456" height="1.0662" color-interpolation-filters="sRGB"><feGaussianBlur stdDeviation="4.0216664"/></filter></defs><g transform="translate(-19.985 11.829)"><g transform="translate(0 8.5209)" filter="url(#d)"><g transform="matrix(.14553 0 0 -.14553 66.542 246.85)" stroke-width="2.4241"><g clip-path="url(#e)" stroke-width="2.4241"><g transform="translate(429.25 545.79)" stroke-width="2.4241"><path d="m0 0h0.013c27.258-2e-3 53.015-6.641 75.717-18.371 3.676-1.899 7.293-3.946 10.839-6.13 18.134-11.173 33.952-25.739 46.539-42.789 1.06-1.436-1.243-3.604-2.608-2.467l-0.013 0.011 3e-3 4e-3c-3.213 2.563-6.569 4.996-10.052 7.281-3.505 2.297-7.114 4.431-10.811 6.387-19.124 10.121-41.181 15.904-64.639 15.904h-8e-3c-36.419-1e-3 -69.477-13.943-93.419-36.426-23.913-22.455-38.74-53.437-38.743-87.555v-0.022c1e-3 -34.123 14.831-65.11 38.748-87.565 23.942-22.48 56.994-36.418 93.406-36.421h0.035c16.29 1e-3 31.906 2.793 46.326 7.888 2.356 0.833 4.676 1.725 6.949 2.671 11.726 4.879 22.576 11.324 32.243 19.051 1.392 1.113 3.655-1.115 2.56-2.524l-8e-3 -9e-3 -3e-3 3e-3c-4.206-5.695-8.772-11.111-13.658-16.212-4.896-5.109-10.124-9.911-15.644-14.368-28.385-22.911-64.514-36.671-103.77-36.671h-6e-3c-45.45 2e-3 -86.714 18.441-116.62 48.177-29.902 29.737-48.441 70.773-48.445 115.97v0.023c2e-3 45.205 18.543 86.248 48.449 115.99 29.899 29.734 71.159 48.169 116.6 48.173zm184.15-92.241 33.902-45.209 53.472 18.272-32.52-46.21 33.9-45.211-53.999 16.646-32.521-46.21-0.852 56.501-54.001 16.646 53.473 18.272zm-513.66 243.2h945.38v-630.26h-945.38z" fill="#ed1c24" fill-rule="evenodd"/></g></g></g><g transform="matrix(.12943 0 0 .12943 482.79 145.25)" fill-rule="evenodd" stroke-width="4.1789"><path d="m0 0h1063v708.66h-1063z" fill="#fff"/><path d="m0 475.56h1063v236.22h-1063z" fill="#c10"/><path d="m0 0h1063v236.22h-1063z" fill="#0c04cf"/></g></g><g transform="translate(10.134)" filter="url(#c)"><g transform="matrix(.13957 0 0 -.13956 135.56 135.97)" stroke-width="2.5277"><path d="m1088 726.81h-985.5v-610.9h985.5z" fill="#fff"/><g fill="#d2103e"><path d="m1088 726.81h-985.5v-46.946h985.5z"/><path d="m1088 632.68h-985.5v-46.946h985.5z"/><path d="m1088 539.19h-985.5v-46.945h985.5z"/><path d="m1088 445.06h-985.5v-46.945h985.5z"/><path d="m1088 350.29h-985.5v-46.946h985.5z"/><path d="m1088 256.8h-985.5v-46.946h985.5z"/><path d="m1088 162.02h-985.5v-46.946h985.5z"/></g><path d="m511.71 726.81h-409.18v-328.5h409.18z" fill="#173a79"/><g stroke-width="2.5277"><g transform="translate(145.78 698.07)"><path d="m0 0h9.96l-8.023-6.017 3.112-9.545-7.988 5.878-7.989-5.878 3.147 9.545-8.092 6.017h9.925l3.009 9.302z" fill="#fff"/></g><g transform="translate(211.87 698.07)"><path d="m0 0h9.96l-8.024-6.017 3.112-9.545-7.988 5.878-7.988-5.878 3.147 9.545-8.093 6.017h9.925l3.009 9.302z" fill="#fff"/></g><g transform="translate(277.95 698.07)"><path d="m0 0h9.96l-8.024-6.017 3.112-9.545-7.988 5.878-7.988-5.878 3.146 9.545-8.091 6.017h9.925l3.008 9.302z" fill="#fff"/></g><g transform="translate(344.04 698.07)"><path d="m0 0h9.96l-8.024-6.017 3.112-9.545-7.988 5.878-7.989-5.878 3.147 9.545-8.091 6.017h9.925l3.008 9.302z" fill="#fff"/></g><g transform="translate(410.12 698.07)"><path d="m0 0h9.96l-8.024-6.017 3.113-9.545-7.989 5.878-7.988-5.878 3.146 9.545-8.091 6.017h9.925l3.008 9.302z" fill="#fff"/></g><g transform="translate(476.2 698.07)"><path d="m0 0h9.96l-8.024-6.017 3.112-9.545-7.988 5.878-7.987-5.878 3.145 9.545-8.091 6.017h9.925l3.008 9.302z" fill="#fff"/></g><g transform="translate(443.16 664.45)"><path d="m0 0h9.96l-8.024-6.017 3.112-9.545-7.988 5.879-7.987-5.879 3.147 9.545-8.093 6.017h9.925l3.008 9.302z" fill="#fff"/></g><g transform="translate(410.12 630.83)"><path d="m0 0h9.96l-8.024-6.018 3.113-9.544-7.987 5.879-7.989-5.879 3.147 9.544-8.093 6.018h9.925l3.01 9.302z" fill="#fff"/></g><g transform="translate(377.08 597.21)"><path d="m0 0h9.96l-8.024-6.018 3.114-9.544-7.989 5.878-7.988-5.878 3.147 9.544-8.093 6.018h9.925l3.009 9.302z" fill="#fff"/></g><g transform="translate(344.04 563.59)"><path d="m0 0h9.96l-8.022-6.018 3.112-9.544-7.989 5.879-7.988-5.879 3.147 9.544-8.093 6.018h9.925l3.009 9.302z" fill="#fff"/></g><g transform="translate(310.99 529.97)"><path d="m0 0h9.958l-8.022-6.017 3.113-9.545-7.989 5.879-7.988-5.879 3.146 9.545-8.093 6.017h9.925l3.01 9.303z" fill="#fff"/></g><g transform="translate(277.95 496.36)"><path d="m0 0h9.96l-8.024-6.018 3.112-9.544-7.988 5.878-7.989-5.878 3.147 9.544-8.093 6.018h9.927l3.008 9.302z" fill="#fff"/></g><g transform="translate(244.91 462.74)"><path d="m0 0h9.96l-8.024-6.018 3.112-9.543-7.988 5.878-7.989-5.878 3.147 9.543-8.091 6.018h9.925l3.008 9.302z" fill="#fff"/></g><g transform="translate(211.87 429.12)"><path d="m0 0h9.96l-8.024-6.018 3.112-9.544-7.988 5.879-7.988-5.879 3.147 9.544-8.093 6.018h9.925l3.009 9.303z" fill="#fff"/></g><g transform="translate(277.95 429.12)"><path d="m0 0h9.96l-8.024-6.018 3.112-9.544-7.988 5.879-7.988-5.879 3.146 9.544-8.091 6.018h9.925l3.008 9.303z" fill="#fff"/></g><g transform="translate(344.04 429.12)"><path d="m0 0h9.96l-8.024-6.018 3.112-9.544-7.988 5.879-7.989-5.879 3.147 9.544-8.091 6.018h9.925l3.008 9.303z" fill="#fff"/></g><g transform="translate(410.12 429.12)"><path d="m0 0h9.96l-8.024-6.018 3.113-9.544-7.989 5.879-7.988-5.879 3.146 9.544-8.091 6.018h9.925l3.008 9.303z" fill="#fff"/></g><g transform="translate(476.2 429.12)"><path d="m0 0h9.96l-8.024-6.018 3.112-9.544-7.988 5.879-7.987-5.879 3.145 9.544-8.091 6.018h9.925l3.008 9.303z" fill="#fff"/></g><g transform="translate(310.99 664.45)"><path d="m0 0h9.96l-8.024-6.018 3.113-9.544-7.987 5.879-7.989-5.879 3.147 9.544-8.093 6.018h9.925l3.01 9.302z" fill="#fff"/></g><g transform="translate(277.95 630.83)"><path d="m0 0h9.96l-8.024-6.017 3.112-9.545-7.988 5.879-7.989-5.879 3.147 9.545-8.093 6.017h9.927l3.008 9.303z" fill="#fff"/></g><g transform="translate(244.91 597.21)"><path d="m0 0h9.96l-8.024-6.018 3.113-9.544-7.989 5.878-7.988-5.878 3.146 9.544-8.091 6.018h9.925l3.008 9.302z" fill="#fff"/></g><g transform="translate(211.87 563.59)"><path d="m0 0h9.96l-8.024-6.017 3.114-9.545-7.989 5.878-7.989-5.878 3.147 9.545-8.092 6.017h9.925l3.009 9.302z" fill="#fff"/></g><g transform="translate(178.83 529.98)"><path d="m0 0h9.96l-8.023-6.017 3.112-9.545-7.988 5.879-7.988-5.879 3.147 9.545-8.092 6.017h9.925l3.008 9.303z" fill="#fff"/></g><g transform="translate(178.83 664.45)"><path d="m0 0h9.96l-8.023-6.017 3.112-9.545-7.988 5.879-7.988-5.879 3.147 9.545-8.093 6.017h9.925l3.009 9.302z" fill="#fff"/></g><g transform="translate(244.91 664.45)"><path d="m0 0h9.96l-8.024-6.017 3.114-9.545-7.989 5.879-7.988-5.879 3.147 9.545-8.093 6.017h9.925l3.009 9.302z" fill="#fff"/></g><g transform="translate(211.87 630.83)"><path d="m0 0h9.96l-8.024-6.017 3.112-9.544-7.988 5.878-7.988-5.878 3.147 9.544-8.093 6.017h9.925l3.009 9.303z" fill="#fff"/></g><g transform="translate(178.83 597.21)"><path d="m0 0h9.96l-8.023-6.018 3.112-9.544-7.988 5.878-7.988-5.878 3.147 9.544-8.093 6.018h9.925l3.009 9.302z" fill="#fff"/></g><g transform="translate(145.78 630.83)"><path d="m0 0h9.96l-8.023-6.018 3.112-9.544-7.988 5.879-7.989-5.879 3.147 9.544-8.092 6.018h9.925l3.009 9.302z" fill="#fff"/></g><g transform="translate(145.78 563.59)"><path d="m0 0h9.96l-8.023-6.018 3.112-9.544-7.988 5.879-7.989-5.879 3.147 9.544-8.092 6.018h9.925l3.009 9.302z" fill="#fff"/></g><g transform="translate(145.78 496.36)"><path d="m0 0h9.96l-8.023-6.018 3.112-9.544-7.988 5.878-7.989-5.878 3.147 9.544-8.092 6.018h9.925l3.009 9.302z" fill="#fff"/></g><g transform="translate(377.08 664.45)"><path d="m0 0h9.96l-8.024-6.017 3.112-9.545-7.988 5.879-7.987-5.879 3.147 9.545-8.093 6.017h9.925l3.008 9.302z" fill="#fff"/></g><g transform="translate(344.04 630.83)"><path d="m0 0h9.96l-8.024-6.018 3.112-9.544-7.987 5.879-7.988-5.879 3.147 9.544-8.093 6.018h9.925l3.009 9.302z" fill="#fff"/></g><g transform="translate(310.99 597.21)"><path d="m0 0h9.96l-8.024-6.018 3.113-9.544-7.987 5.878-7.989-5.878 3.147 9.544-8.093 6.018h9.925l3.01 9.302z" fill="#fff"/></g><g transform="translate(277.95 563.59)"><path d="m0 0h9.96l-8.024-6.018 3.114-9.544-7.989 5.879-7.988-5.879 3.147 9.544-8.093 6.018h9.925l3.009 9.302z" fill="#fff"/></g><g transform="translate(244.91 529.97)"><path d="m0 0h9.958l-8.022-6.017 3.113-9.545-7.989 5.879-7.988-5.879 3.146 9.545-8.093 6.017h9.925l3.01 9.303z" fill="#fff"/></g><g transform="translate(211.87 496.36)"><path d="m0 0h9.96l-8.023-6.018 3.112-9.544-7.989 5.878-7.988-5.878 3.147 9.544-8.092 6.018h9.925l3.008 9.302z" fill="#fff"/></g><g transform="translate(178.83 462.74)"><path d="m0 0h9.96l-8.024-6.018 3.113-9.543-7.988 5.878-7.989-5.878 3.147 9.543-8.092 6.018h9.925l3.009 9.302z" fill="#fff"/></g><g transform="translate(145.78 429.12)"><path d="m0 0h9.96l-8.023-6.018 3.112-9.544-7.988 5.879-7.989-5.879 3.147 9.544-8.092 6.018h9.925l3.009 9.303z" fill="#fff"/></g><g transform="translate(310.99 462.74)"><path d="m0 0h9.958l-8.022-6.017 3.113-9.544-7.989 5.878-7.988-5.878 3.146 9.544-8.093 6.017h9.925l3.01 9.303z" fill="#fff"/></g><g transform="translate(344.04 496.36)"><path d="m0 0h9.96l-8.024-6.018 3.112-9.544-7.988 5.879-7.987-5.879 3.147 9.544-8.093 6.018h9.925l3.008 9.302z" fill="#fff"/></g><g transform="translate(377.08 529.97)"><path d="m0 0h9.96l-8.024-6.017 3.112-9.545-7.988 5.879-7.988-5.879 3.146 9.545-8.091 6.017h9.925l3.008 9.303z" fill="#fff"/></g><g transform="translate(410.12 563.59)"><path d="m0 0h9.96l-8.022-6.018 3.112-9.544-7.988 5.879-7.989-5.879 3.147 9.544-8.093 6.018h9.925l3.01 9.303z" fill="#fff"/></g><g transform="translate(443.16 597.21)"><path d="m0 0h9.96l-8.024-6.017 3.114-9.544-7.989 5.878-7.988-5.878 3.147 9.544-8.093 6.017h9.925l3.009 9.303z" fill="#fff"/></g><g transform="translate(377.08 462.74)"><path d="m0 0h9.96l-8.024-6.018 3.114-9.543-7.989 5.878-7.988-5.878 3.147 9.543-8.093 6.018h9.925l3.009 9.302z" fill="#fff"/></g><g transform="translate(410.12 496.36)"><path d="m0 0h9.96l-8.024-6.018 3.113-9.544-7.989 5.878-7.988-5.878 3.146 9.544-8.091 6.018h9.925l3.008 9.302z" fill="#fff"/></g><g transform="translate(443.16 529.97)"><path d="m0 0h9.96l-8.022-6.017 3.112-9.545-7.989 5.879-7.988-5.879 3.147 9.545-8.093 6.017h9.925l3.009 9.303z" fill="#fff"/></g><g transform="translate(443.16 462.74)"><path d="m0 0h9.96l-8.022-6.018 3.112-9.543-7.989 5.878-7.988-5.878 3.147 9.543-8.093 6.018h9.925l3.009 9.302z" fill="#fff"/></g><g transform="translate(476.2 630.83)"><path d="m0 0h9.96l-8.024-6.018 3.112-9.544-7.988 5.879-7.987-5.879 3.145 9.544-8.091 6.018h9.925l3.008 9.302z" fill="#fff"/></g><g transform="translate(476.2 563.59)"><path d="m0 0h9.96l-8.024-6.018 3.112-9.544-7.988 5.879-7.987-5.879 3.147 9.544-8.093 6.018h9.925l3.008 9.302z" fill="#fff"/></g><g transform="translate(476.2 496.36)"><path d="m0 0h9.96l-8.024-6.018 3.112-9.544-7.988 5.878-7.987-5.878 3.145 9.544-8.091 6.018h9.925l3.008 9.302z" fill="#fff"/></g></g><path d="m1088 726.81h-985.5v-610.9h985.5z" fill="none" stroke="#231f20" stroke-width=".25277"/></g><g transform="matrix(.12943 0 0 .12943 393.73 31.35)" fill-rule="evenodd" stroke-width="4.2732"><path d="m0 0h1063v708.66h-1063z" fill="#fff"/><path d="m0 0h354.33v708.66h-354.33z" fill="#005700"/><path d="m708.66 0h354.33v708.66h-354.33z" fill="#fc0000"/></g></g><g transform="translate(12.456)" filter="url(#b)"><g transform="matrix(1.0191 0 0 1.0191 146.43 276.6)" fill-rule="evenodd" stroke-width="16.04"><path d="m0 0h135v10h-135z" fill="#0061f3"/><path d="m0 10h135v10h-135z" fill="#fff"/><path d="m0 20h135v10h-135z" fill="#0061f3"/><path d="m0 30h135v10h-135z" fill="#fff"/><path d="m0 40h135v10h-135z" fill="#0061f3"/><path d="m0 50h135v10h-135z" fill="#fff"/><path d="m0 60h135v10h-135z" fill="#0061f3"/><path d="m0 70h135v10h-135z" fill="#fff"/><path d="m0 80h135v10h-135z" fill="#0061f3"/><path d="m0 0h50v50h-50z" fill="#0061f3"/><path d="m20 0h10v50h-10z" fill="#fff"/><path d="m0 20h50v10h-50z" fill="#fff"/></g><g transform="matrix(.15287 0 0 .15287 392.5 276.6)" stroke-width="14.451"><rect width="900" height="600" fill="#ed2939"/><rect width="600" height="600" fill="#fff"/><rect width="300" height="600" fill="#002395"/></g></g><rect transform="matrix(1.0108 0 0 1.0108 -3.7892 -2.1591)" x="139.05" y="54.022" width="423.33" height="291.63" filter="url(#a)" style="mix-blend-mode:normal"/><g transform="matrix(1.3439 0 0 1.3439 139.05 54.022)"><path d="m0-1e-5h315v217h-315z" fill="#de2110" fill-rule="evenodd" stroke-width=".045545"/><path d="m114.94 42c3.53-0.3446 4.247-0.2985 6.839 0.3725-3.329 1.5231-7.265 0.762-9.706-1.4018-3.689-3.3493-12.475-9.141-9.333-4.206 16.3 18.063 30.338 5.8502 38.875 16.251 2.908 3.5423 5.476 8.2978 3.946 12.968-0.523 1.5986-2.413 5.3595-4.698 4.4035-2.992-1.2516 0.567-11.084-1.611-14.282-4.945-7.2628-13.905-5.3202-21.257-6.1049-2.133 5.784-7.271 4.9125-11.995 1.9946-6.0307-3.7241-5.849-12.883-11.239-15.908-5.6164-3.1522-4.701 7.4052-3.7963 9.9136 3.9205 10.87 15.464 14.932 26.03 13-7.82 12.108-20.214-7.8381-26.353-2.9529-3.8956 3.0998 2.9851 8.7392 5.3688 10.033 6.5946 3.5799 14.519 1.7818 20.985-1.0802-3.692 4.0099-10.485 6.4705-16 5.6566-2.8482-0.4203-8.5543-3.9995-11.149-1.6142-4.0058 3.6827 5.7738 8.0505 8.1489 8.5672 8.006 1.7417 13.676-2.4828 20-6.6096-3.971 3.9688-8.21 9.403-14 10.591-3.611 0.7409-11.58-2.9443-13.914 0.8812-2.7901 4.5745 4.6078 7.4687 7.9136 7.1829 7.832-0.6771 15.104-6.979 21-11.655-4.052 5.7481-10.306 11.83-17 14.428-3.5135 1.3631-9.5539-0.7462-12.199 2.3148-4.075 4.7156 4.8969 7.4987 8.1991 6.6957 9.639-2.3447 14.781-12.892 24-16.438-6.253 5.7595-12.877 14.682-20.09 18.951-3.5838 2.122-9.4284-0.478-12.263 2.652-6.4066 7.075 9.6441 8.587 14.179 4.839 7.595-6.277 11.236-15.275 20.174-20.442-5.961 8.107-13.511 20.213-21.093 26.757-3.6096 3.115-11.535 0.382-13.821 3.846-4.5921 6.957 10.218 8.152 13.91 5.693 12.12-8.07 12.782-26.775 28.004-31.296-4.313 9.238-8.617 21.743-19 25 1.558 4.693 7.066 5.103 10.606 1.682 6.075-5.869 4.821-19.23 15.394-19.682l-7.625 10.688c0.405 4.366 8.23-1.49 10.625-5.688h1c-4.166 9.938-11.52 15.487-21 20 0.186 5.925-3.778 8.977-9 11-2.81-5.166-10.298-9.009-14-3 2.938 0.396 5.563 0.948 6 4-4.6588-1.682-8.3356-2.479-10 3 5.4584-0.896 7.323-0.697 8.25 1.688-3.7308 4.297-3.1225 10.833 3.75 11.468-1.917-1.385-3.209-2.302-2.156-4.156 1.524-2.024 3.328 0.024 4.212-1.182 1.65-2.408 0.164-1.567 2.268-0.598 1.724 1.234 4.528-3.93 8.52 4.78 4.801-3.454 0.182-8.913-1.844-13l15-3 17-16 1 1c-5.495 8.646-13.403 16.069-24 17 3.547 6.433 10.506 3.116 16 1-2.389 4.661-8.591 4.687-10.673 8.544-4.269 7.911 13.567-0.244 14.673-0.544-1.425 5.02-7.043 6.026-8.503 10.281-1.134 3.304 3.495 3.631 5.461 2.672 3.794-1.852 6.274-6.879 9.042-9.953-1.296 6 1.159 10.75-5.449 17.688l10.137 12.468 11.572-12.483c-6.388-5.527-2.465-11.991-3.697-17.985 2.706 3.173 3.627 8.381 7.472 10.265 1.793 0.878 5.494 0.906 5.044-2.047-0.637-4.181-6.78-6.329-8.079-10.906 1.28 0.423 18.57 8.532 14.593 0.544-1.885-3.785-8.264-4-10.593-8.544 5.557 2.14 11.262 4.838 16 0-8.807-3.06-21.907-8.272-23-19l17.285 14.883 14.715 5.117v1c-3.586 3.736-5.662 6.342-2.688 10.906l3.657 1.095c-2.344-2.584-1.562-3.918 0-4.939 2.646-1.261 4.238 1.187 5.262-1.339 0.465-1.226 0.628-1.803 0.864-0.306 0.261 2.651 3.934 0.612 5.218 0.958 2.009 1.979-0.98 3.958-1.313 5.625 5.682-1.991 6.756-5.477 5-11 0.375-2.094 1.688-3.094 3-3 1.49 0.177 2.667 0.667 4 1-1.951-5.096-5.394-4.903-10-3 0.417-3.052 1.927-4.542 5-4-2.309-6.929-10.659-1.367-13 3-5.438-1.804-10.644-4.75-9-11-9.189-4.374-17.742-9.792-21-20h1c2.395 4.198 10.064 7.085 9.531 3.188l-6.531-8.188c14.064 0.604 8.462 26.17 26 21v-2c-10.092-5.621-14.238-15.801-19-26 14.969 4.447 15.464 23.013 27.093 31.121 3.719 2.593 19.372 1.898 14.77-5.518-2.07-3.336-10.325-0.928-13.823-3.846-7.596-6.336-15.236-18.656-21.04-26.757 9.186 5.8378 13.583 17.596 23.001 22.312 3.977 1.992 13.404 1.695 12.051-5.168-0.962-4.884-8.795-2.161-12.037-3.551-7.275-3.119-15.184-14.012-21.015-19.593 8.731 3.8347 13.908 13.603 23 16.347 3.346 1.01 11.987-0.495 9.593-5.9141-1.701-3.85-9.316-1.7744-12.593-2.9545-7.205-2.5945-12.742-9.2209-18-14.478 7.057 4.0591 13.44 10.926 22 11.655 3.305 0.2817 11.88-3.6404 7.377-7.8233-2.929-2.7207-8.851 0.3155-12.377-0.0849-5.68-0.645-10.456-5.6537-14-9.7469 8.26 5.0744 33.898 7.236 29.406-3.375-3.118-2.5943-6.525 1.9242-12.658 2.0945-6.426 0.0148-12.799-1.5095-18.06-5.5633 6.7 2.2621 14.389 4.6626 21.297 1.4264 2.456-1.1503 11.248-8.4347 5.566-10.935-4.43-1.9494-8.996 4.3278-12.551 5.9159-4.406 1.9683-9.547 0.5337-14-0.5633v-1c9.133-0.4848 18.202-1.004 24.211-9.0401 1.973-2.6392 7.116-13.448 1.371-15.208-2.293-0.7027-4.07 1.5864-5.025 3.307-2.806 5.058-15.319 25.146-20.557 10.941-7.367 0.7863-16.291-1.1521-21.258 6.1049-2.204 3.2205 1.2 13.103-1.774 14.282-8.404 3.3332-2.791-15.031-0.754-17.372 9.056-10.41 33.543-1.4477 37.786-16.015 0.461-3.8631-5.045 3.0499-7.637 4.7256-2.808 1.7302-6.373 1.8431-9.363 1.2744 3.172-1.6615 5.719-1.1355 7.719-1.4688-1.877-3.2981-6.182-2.8796-7.282-4.7064-1.436-2.593-7.163-3.3488-10.417-2.835-6.189 1.3676-8.57 3.2136-20.02 0.0102l5 6-7.166 2.9944 3.166 2.0056-6 4c1 0.3333 3.381 0.3352 3.221 1.2762l-4.834 8.221c-1.003-1.7233-4.302-6.2356-4.767-7.9669-0.233-0.7726 1.162-1.1333 3.049-1.475l-5.669-4.0553 3.664-2.1406-7.664-2.8594 4-6c-6.377 4.254-11.851-1.6919-19.234 0.047-3.148 0.7156-5.69 4.2208-8.654 3.6359-2.5-0.4276-5.414 1.0587-7.167 4.3171z" stroke-width=".19688"/><path d="m132.34 36.297c0.651 0.3125 1.848 0.1562 2.03 0.8593-1.224 0.4428-2.682 0.4949-3.906 0.3908 0.573-1.3021 1.225-0.8074 1.876-1.2501z" fill="#de2110" fill-rule="evenodd" stroke-width=".045545"/><path d="m188.2 36.531c-0.65 0.3125-1.847 0.1562-2.029 0.8593 1.224 0.4428 2.682 0.4949 3.905 0.3908-0.572-1.3021-1.225-0.8074-1.876-1.2501z" fill="#de2110" fill-rule="evenodd" stroke-width=".045545"/></g></g></svg>
